<?xml version="1.0" encoding="UTF-8" ?>
<!DOCTYPE svg PUBLIC "-//W3C//DTD SVG 1.1//EN" "http://www.w3.org/Graphics/SVG/1.1/DTD/svg11.dtd">
<svg width="600pt" height="600pt" viewBox="0 0 600 600" version="1.1" xmlns="http://www.w3.org/2000/svg">
<g id="#2c251eff">
<path fill="#2c251e" opacity="1.00" d=" M 361.36 118.35 C 362.35 116.63 364.69 117.54 366.28 117.17 C 364.78 119.84 363.22 122.61 363.65 125.81 C 365.73 125.47 366.52 123.99 366.56 122.04 C 366.82 121.99 367.34 121.90 367.60 121.85 C 367.24 123.33 365.65 125.63 367.84 126.46 C 371.59 126.19 375.11 124.63 378.67 123.55 C 381.37 121.80 383.38 119.18 385.95 117.24 C 384.64 119.15 383.39 121.09 382.29 123.12 C 383.00 122.97 384.43 122.66 385.14 122.50 C 385.36 122.89 385.80 123.66 386.02 124.05 C 389.37 125.73 392.95 126.89 396.44 128.26 C 389.67 129.56 382.98 131.28 376.15 132.26 C 372.25 132.97 367.97 133.11 364.70 135.64 C 358.18 140.56 352.46 146.54 345.41 150.77 C 344.29 150.57 343.18 150.37 342.06 150.17 C 342.31 149.63 342.79 148.55 343.03 148.01 C 342.17 147.54 341.31 147.07 340.45 146.60 C 340.18 145.75 339.65 144.05 339.38 143.20 C 340.87 143.84 342.37 144.48 343.87 145.12 C 344.97 143.96 346.07 142.80 347.19 141.66 C 347.88 141.62 349.26 141.56 349.95 141.53 C 348.52 138.48 347.02 135.48 345.75 132.36 C 347.24 132.74 348.21 133.70 348.67 135.26 C 350.97 133.51 351.98 130.88 351.92 128.03 C 352.50 130.80 351.87 133.59 351.37 136.32 C 355.60 137.54 356.59 133.05 358.37 130.42 C 359.85 126.51 359.53 122.13 361.36 118.35 Z" />
<path fill="#2c251e" opacity="1.00" d=" M 339.95 152.27 C 340.79 152.22 342.48 152.12 343.32 152.08 C 342.60 152.99 341.92 153.93 341.24 154.88 C 344.77 155.09 348.31 155.12 351.83 154.69 C 359.49 153.73 367.22 154.48 374.91 154.09 C 379.82 154.07 384.82 153.32 389.68 154.31 C 391.98 156.91 393.07 160.30 394.64 163.35 C 402.26 178.76 410.38 193.94 417.32 209.68 C 419.85 215.50 423.92 220.79 424.92 227.17 C 421.01 222.18 418.41 216.34 414.99 211.03 C 409.54 201.87 406.51 191.55 402.20 181.86 C 401.18 178.85 397.92 177.91 395.39 176.57 C 387.49 173.06 380.28 168.19 372.38 164.70 C 371.06 164.17 369.55 163.39 368.17 164.19 C 363.50 166.33 359.26 169.28 354.81 171.82 C 347.47 175.95 340.62 181.39 332.28 183.35 C 333.63 175.21 338.72 168.64 344.09 162.68 C 339.63 161.22 339.07 156.23 339.95 152.27 Z" />
</g>
<g id="#383733ff">
<path fill="#383733" opacity="1.00" d=" M 386.02 124.05 C 389.46 121.94 393.51 121.06 397.49 122.03 C 396.33 123.74 394.42 124.63 392.76 125.75 C 394.96 125.23 397.08 124.45 399.13 123.50 C 401.60 124.31 404.04 125.24 406.40 126.36 C 404.38 127.66 402.10 128.50 399.72 128.80 C 398.62 128.64 397.53 128.45 396.44 128.26 C 392.95 126.89 389.37 125.73 386.02 124.05 Z" />
<path fill="#383733" opacity="1.00" d=" M 401.37 129.44 C 404.29 129.19 407.69 128.80 409.69 131.46 C 411.32 132.08 413.02 132.59 414.59 133.38 C 416.64 134.18 416.60 136.69 417.27 138.45 C 419.05 139.69 420.38 141.39 421.44 143.26 C 416.62 141.06 412.64 137.52 408.12 134.81 C 405.64 133.33 403.46 131.42 401.37 129.44 Z" />
<path fill="#383733" opacity="1.00" d=" M 437.69 161.16 C 436.95 159.01 436.55 156.77 436.48 154.51 C 438.29 156.63 439.04 159.37 440.42 161.75 C 442.16 164.81 444.98 167.11 446.66 170.21 C 447.64 173.44 447.17 177.05 448.92 180.07 C 454.15 191.25 454.77 204.03 452.06 215.97 C 453.50 217.55 455.20 219.01 456.00 221.05 C 458.56 228.58 458.07 236.88 455.10 244.22 C 452.75 249.78 450.38 255.67 445.83 259.83 C 443.52 262.04 440.39 262.91 437.44 263.89 C 437.71 261.46 438.04 259.03 438.59 256.65 C 441.64 244.12 444.45 231.52 447.48 218.98 C 448.46 214.43 449.67 209.93 450.53 205.35 C 451.21 201.83 449.69 198.45 448.75 195.14 C 445.10 183.80 441.39 172.48 437.69 161.16 Z" />
<path fill="#383733" opacity="1.00" d=" M 451.98 346.86 C 458.76 349.45 466.04 349.72 472.95 351.80 C 485.47 355.01 498.49 358.08 509.08 365.86 C 512.38 368.48 513.16 372.81 513.97 376.69 C 516.33 377.14 519.31 377.39 519.73 380.38 C 499.01 371.68 478.14 363.29 457.36 354.70 C 453.80 353.73 453.08 349.86 451.98 346.86 Z" />
<path fill="#383733" opacity="1.00" d=" M 520.67 380.89 C 524.67 380.75 528.92 379.56 532.81 381.02 C 535.42 386.19 538.83 390.86 542.80 395.08 C 547.62 400.48 550.79 407.05 553.62 413.64 L 552.05 414.13 C 546.98 409.80 543.18 404.23 538.29 399.72 C 532.70 393.17 526.41 387.28 520.67 380.89 Z" />
</g>
<g id="#201612ff">
<path fill="#201612" opacity="1.00" d=" M 396.44 128.26 C 397.53 128.45 398.62 128.64 399.72 128.80 L 399.97 129.18 C 400.81 130.56 401.64 132.01 402.94 133.03 C 409.46 138.52 415.97 144.04 422.39 149.65 C 426.98 153.42 432.00 156.76 435.92 161.27 C 435.05 170.77 430.00 179.53 428.99 188.99 C 433.92 199.63 442.81 208.13 447.48 218.98 C 444.45 231.52 441.64 244.12 438.59 256.65 C 438.04 259.03 437.71 261.46 437.44 263.89 L 437.29 265.03 C 434.79 269.26 430.48 272.34 429.30 277.33 C 426.01 278.45 424.47 281.89 422.29 284.32 C 423.68 287.76 425.24 291.14 427.08 294.37 C 426.85 296.83 426.64 299.29 426.47 301.76 C 427.33 301.70 429.04 301.56 429.89 301.49 C 431.58 305.62 433.37 309.72 435.29 313.76 C 437.41 318.11 438.69 323.03 442.26 326.50 C 442.02 332.26 441.46 338.03 440.11 343.64 C 444.07 344.71 448.03 345.77 451.98 346.86 C 453.08 349.86 453.80 353.73 457.36 354.70 C 478.14 363.29 499.01 371.68 519.73 380.38 C 519.96 380.51 520.43 380.76 520.67 380.89 C 526.41 387.28 532.70 393.17 538.29 399.72 C 543.18 404.23 546.98 409.80 552.05 414.13 C 555.89 431.16 560.91 447.92 565.15 464.85 C 565.95 468.28 566.28 472.04 568.80 474.74 L 568.88 474.99 C 568.94 477.65 569.60 480.70 568.12 483.09 C 561.31 490.86 554.20 498.36 547.15 505.91 C 542.64 503.61 537.46 504.66 532.65 503.78 C 537.58 501.37 543.27 501.68 548.39 499.79 C 538.90 495.16 528.14 493.90 518.63 489.29 C 524.50 481.62 531.41 474.78 536.96 466.87 C 531.47 468.69 526.79 472.15 521.70 474.78 C 520.65 475.15 519.00 476.33 518.39 474.74 C 514.44 467.81 511.72 459.98 511.27 451.98 C 511.84 442.25 513.83 432.65 514.67 422.94 C 515.08 419.64 513.40 416.65 512.33 413.65 C 509.82 406.79 507.44 399.87 504.84 393.05 C 504.29 390.94 501.88 390.56 500.16 389.83 C 492.80 387.47 485.50 384.91 478.05 382.89 C 470.07 380.69 462.23 377.76 453.96 376.88 C 448.01 376.10 442.04 375.49 436.10 374.63 C 431.87 374.08 428.86 370.80 425.69 368.29 C 422.49 365.42 418.89 362.99 415.94 359.87 C 415.89 352.08 419.15 344.68 420.09 336.99 C 420.38 334.02 417.95 331.79 416.61 329.39 C 413.30 323.76 409.21 318.62 406.17 312.83 C 403.51 308.09 400.89 303.34 398.32 298.57 C 397.53 297.38 396.80 295.55 395.04 295.78 C 384.34 295.72 373.68 296.88 362.98 296.93 C 359.80 296.99 356.53 297.19 353.62 298.61 C 347.88 301.22 342.08 303.70 336.32 306.27 C 334.52 319.83 333.47 333.48 331.79 347.05 C 317.11 348.07 302.41 346.01 287.74 347.13 C 294.54 349.74 301.73 351.17 308.60 353.55 C 312.01 354.72 314.75 357.14 317.12 359.78 C 302.78 361.56 288.38 362.96 273.98 364.18 C 272.08 364.66 272.26 362.11 271.90 360.99 C 270.86 354.06 269.95 347.10 268.36 340.28 C 277.62 338.13 287.01 336.52 296.43 335.18 C 300.86 336.72 305.39 337.95 310.00 338.85 C 309.67 337.11 309.33 335.36 309.00 333.62 C 312.44 333.34 315.89 333.32 319.35 333.41 C 321.14 323.89 322.95 314.35 325.75 305.06 C 326.80 300.87 329.71 297.57 331.92 293.96 C 334.44 291.71 337.74 290.55 340.64 288.86 C 337.99 282.02 334.39 275.41 333.70 267.99 C 331.36 260.18 331.46 251.94 329.89 243.98 C 328.78 238.70 328.36 233.27 328.93 227.90 C 329.47 224.63 330.81 221.44 330.47 218.08 C 330.22 213.95 328.24 210.17 327.83 206.06 C 327.94 202.29 329.45 198.74 329.76 194.99 C 330.11 191.02 330.96 187.11 332.28 183.35 C 340.62 181.39 347.47 175.95 354.81 171.82 C 359.26 169.28 363.50 166.33 368.17 164.19 C 369.55 163.39 371.06 164.17 372.38 164.70 C 380.28 168.19 387.49 173.06 395.39 176.57 C 397.92 177.91 401.18 178.85 402.20 181.86 C 406.51 191.55 409.54 201.87 414.99 211.03 C 418.41 216.34 421.01 222.18 424.92 227.17 C 423.92 220.79 419.85 215.50 417.32 209.68 C 410.38 193.94 402.26 178.76 394.64 163.35 C 393.07 160.30 391.98 156.91 389.68 154.31 C 384.82 153.32 379.82 154.07 374.91 154.09 C 367.22 154.48 359.49 153.73 351.83 154.69 C 348.31 155.12 344.77 155.09 341.24 154.88 C 341.92 153.93 342.60 152.99 343.32 152.08 C 343.84 151.75 344.89 151.10 345.41 150.77 C 352.46 146.54 358.18 140.56 364.70 135.64 C 367.97 133.11 372.25 132.97 376.15 132.26 C 382.98 131.28 389.67 129.56 396.44 128.26 Z" />
<path fill="#201612" opacity="1.00" d=" M 222.49 253.59 C 232.31 253.12 242.14 252.31 251.98 252.46 C 254.87 252.48 256.18 255.63 256.37 258.08 C 258.10 270.16 260.14 282.19 261.87 294.27 C 260.02 293.23 259.78 291.16 259.46 289.32 C 258.37 282.15 256.62 275.11 255.64 267.92 C 251.42 268.51 247.34 270.01 243.04 270.02 C 230.45 270.22 217.82 269.35 205.37 267.52 C 197.90 265.33 190.20 264.00 182.79 261.60 C 193.62 258.45 204.83 256.64 216.04 255.37 C 218.27 255.15 220.42 254.44 222.49 253.59 Z" />
</g>
<g id="#282019ff">
<path fill="#282019" opacity="1.00" d=" M 399.97 129.18 C 400.32 129.24 401.02 129.38 401.37 129.44 C 403.46 131.42 405.64 133.33 408.12 134.81 C 412.64 137.52 416.62 141.06 421.44 143.26 C 422.26 143.90 423.08 144.53 423.90 145.16 C 426.90 147.21 429.52 150.50 433.39 150.73 C 434.44 151.97 435.47 153.23 436.48 154.51 C 436.55 156.77 436.95 159.01 437.69 161.16 C 441.39 172.48 445.10 183.80 448.75 195.14 C 449.69 198.45 451.21 201.83 450.53 205.35 C 449.67 209.93 448.46 214.43 447.48 218.98 C 442.81 208.13 433.92 199.63 428.99 188.99 C 430.00 179.53 435.05 170.77 435.92 161.27 C 432.00 156.76 426.98 153.42 422.39 149.65 C 415.97 144.04 409.46 138.52 402.94 133.03 C 401.64 132.01 400.81 130.56 399.97 129.18 Z" />
</g>
<g id="#16120f82">
<path fill="#16120f" opacity="0.51" d=" M 338.20 139.24 C 339.69 137.98 340.40 140.89 339.39 141.71 C 337.95 143.13 337.17 140.04 338.20 139.24 Z" />
</g>
<g id="#201b16be">
<path fill="#201b16" opacity="0.75" d=" M 341.30 142.25 C 344.27 140.73 341.57 145.59 341.30 142.25 Z" />
</g>
<g id="#302e2be2">
<path fill="#302e2b" opacity="0.89" d=" M 423.90 145.16 C 425.15 144.84 426.42 144.52 427.68 144.20 C 427.85 144.78 428.17 145.94 428.33 146.52 C 430.16 147.73 431.95 149.04 433.39 150.73 C 429.52 150.50 426.90 147.21 423.90 145.16 Z" />
</g>
<g id="#0f0c0a58">
<path fill="#0f0c0a" opacity="0.35" d=" M 338.36 162.28 C 338.80 162.77 338.80 162.77 338.36 162.28 Z" />
</g>
<g id="#0a0402ff">
<path fill="#0a0402" opacity="1.00" d=" M 197.88 255.91 C 206.06 254.99 214.24 253.76 222.49 253.59 C 220.42 254.44 218.27 255.15 216.04 255.37 C 204.83 256.64 193.62 258.45 182.79 261.60 C 190.20 264.00 197.90 265.33 205.37 267.52 C 217.82 269.35 230.45 270.22 243.04 270.02 C 247.34 270.01 251.42 268.51 255.64 267.92 C 256.62 275.11 258.37 282.15 259.46 289.32 C 259.78 291.16 260.02 293.23 261.87 294.27 C 264.27 309.57 266.12 324.96 268.36 340.28 C 269.95 347.10 270.86 354.06 271.90 360.99 C 272.26 362.11 272.08 364.66 273.98 364.18 C 288.38 362.96 302.78 361.56 317.12 359.78 C 314.75 357.14 312.01 354.72 308.60 353.55 C 301.73 351.17 294.54 349.74 287.74 347.13 C 302.41 346.01 317.11 348.07 331.79 347.05 C 333.47 333.48 334.52 319.83 336.32 306.27 C 342.08 303.70 347.88 301.22 353.62 298.61 C 356.53 297.19 359.80 296.99 362.98 296.93 C 373.68 296.88 384.34 295.72 395.04 295.78 C 396.80 295.55 397.53 297.38 398.32 298.57 C 400.89 303.34 403.51 308.09 406.17 312.83 C 409.21 318.62 413.30 323.76 416.61 329.39 C 417.95 331.79 420.38 334.02 420.09 336.99 C 419.15 344.68 415.89 352.08 415.94 359.87 C 418.89 362.99 422.49 365.42 425.69 368.29 C 428.86 370.80 431.87 374.08 436.10 374.63 C 442.04 375.49 448.01 376.10 453.96 376.88 C 462.23 377.76 470.07 380.69 478.05 382.89 C 485.50 384.91 492.80 387.47 500.16 389.83 C 501.88 390.56 504.29 390.94 504.84 393.05 C 507.44 399.87 509.82 406.79 512.33 413.65 C 513.40 416.65 515.08 419.64 514.67 422.94 C 513.83 432.65 511.84 442.25 511.27 451.98 C 511.72 459.98 514.44 467.81 518.39 474.74 C 519.00 476.33 520.65 475.15 521.70 474.78 C 526.79 472.15 531.47 468.69 536.96 466.87 C 531.41 474.78 524.50 481.62 518.63 489.29 C 528.14 493.90 538.90 495.16 548.39 499.79 C 543.27 501.68 537.58 501.37 532.65 503.78 C 537.46 504.66 542.64 503.61 547.15 505.91 C 547.59 507.03 548.08 508.13 548.60 509.23 C 546.79 509.94 544.96 510.64 543.04 510.98 C 533.32 512.70 523.58 514.36 513.97 516.61 C 520.34 517.04 526.67 515.73 533.04 516.14 C 541.43 516.53 550.04 514.43 558.28 516.61 C 545.65 519.07 532.66 519.19 520.09 521.89 C 522.82 529.64 524.95 537.57 527.49 545.39 C 528.77 549.69 530.37 553.93 531.10 558.38 C 522.84 553.01 516.17 545.52 508.14 539.81 C 506.94 538.74 505.49 539.81 504.26 540.19 C 495.72 544.09 487.09 547.75 478.51 551.55 C 475.62 552.77 472.56 554.89 469.33 553.55 C 459.78 550.48 450.15 547.66 440.63 544.47 C 435.05 542.82 429.60 540.61 423.81 539.79 C 414.92 535.45 406.95 529.53 398.29 524.80 C 391.63 520.79 385.08 516.60 378.33 512.76 C 374.62 510.56 370.14 511.53 366.06 511.02 C 361.25 510.48 356.32 510.68 351.61 509.45 C 341.74 506.31 332.18 502.12 322.19 499.40 C 319.14 501.64 317.30 505.22 314.02 507.17 C 310.65 507.56 307.26 507.16 303.89 507.08 C 306.14 508.46 308.42 509.79 310.74 511.08 C 310.09 512.42 309.44 513.77 308.81 515.13 C 312.77 515.79 316.76 516.31 320.73 516.93 C 329.88 522.21 338.89 527.73 348.14 532.83 C 354.66 536.77 361.95 539.12 368.85 542.29 C 381.03 547.40 393.09 552.78 405.30 557.83 C 399.45 558.26 393.78 556.30 387.96 556.12 C 397.63 560.20 407.47 563.90 417.28 567.67 C 422.47 569.41 425.12 574.53 428.60 578.35 C 431.01 580.88 432.51 584.95 436.34 585.56 C 459.09 589.61 481.84 593.73 504.39 598.75 C 478.92 599.31 453.44 598.85 427.97 599.01 C 351.53 598.94 275.08 599.14 198.65 598.90 C 197.65 599.14 196.70 599.51 195.79 600.00 L 195.32 600.00 C 193.85 595.44 189.54 592.73 187.33 588.65 C 186.04 584.94 186.42 580.83 184.86 577.18 C 182.30 570.06 175.49 565.36 168.40 563.44 C 162.62 561.90 157.78 558.27 152.63 555.40 C 145.60 551.27 137.49 549.54 130.33 545.66 C 120.02 540.10 109.41 534.97 98.11 531.73 C 94.32 530.95 91.83 527.66 88.19 526.52 C 82.63 523.99 75.56 525.80 71.07 520.89 C 71.52 520.13 72.40 518.61 72.84 517.86 C 66.33 517.10 59.56 517.98 53.30 515.69 C 49.78 514.50 46.34 513.08 42.88 511.73 C 44.07 509.18 45.32 506.60 45.49 503.74 C 43.09 503.60 40.69 503.48 38.30 503.38 C 37.80 501.60 37.31 499.82 36.98 498.02 C 27.96 446.34 18.90 394.66 10.53 342.88 C 7.47 324.62 3.79 306.46 1.17 288.13 C 1.18 285.91 -0.02 281.83 3.12 281.30 C 12.71 279.27 22.34 277.37 31.99 275.63 C 56.02 272.90 80.06 270.19 104.09 267.44 C 135.33 263.41 166.62 259.77 197.88 255.91 M 265.91 361.04 C 265.37 369.04 263.24 377.58 257.25 383.29 C 253.35 386.44 249.16 389.23 245.19 392.29 C 245.99 398.93 249.13 405.20 249.73 411.79 C 247.31 414.03 243.82 414.62 240.98 416.21 C 242.57 419.09 245.70 421.43 245.33 425.04 C 245.81 430.37 244.02 435.81 245.53 441.04 C 247.17 437.79 246.86 433.35 250.15 431.15 C 253.66 428.70 256.75 425.56 260.74 423.87 C 261.08 429.31 262.32 434.63 262.97 440.04 C 263.21 441.31 263.19 442.81 264.24 443.76 C 269.07 448.48 274.61 452.51 278.97 457.71 C 276.39 458.69 273.79 459.59 271.17 460.44 C 275.31 464.63 278.56 469.68 283.22 473.36 C 284.52 469.33 283.68 465.06 282.77 461.04 C 278.87 433.32 274.21 405.71 270.87 377.92 C 269.47 369.95 268.44 361.93 267.50 353.90 C 265.73 355.84 266.33 358.65 265.91 361.04 M 337.18 379.19 C 331.06 383.51 324.19 386.61 318.04 390.85 C 328.37 389.53 338.59 387.22 348.93 385.97 C 353.26 388.87 356.41 393.44 359.18 397.80 C 348.51 399.61 337.78 400.97 327.03 402.30 C 315.07 404.44 302.88 405.13 290.94 407.44 C 296.71 409.53 302.99 409.57 308.96 410.93 C 315.40 412.58 321.86 410.49 328.19 409.35 C 334.85 408.42 341.46 407.22 348.12 406.27 C 351.23 405.96 353.70 403.96 355.79 401.80 C 360.22 397.20 365.50 393.51 369.71 388.69 C 370.38 388.10 371.55 386.39 369.97 386.07 C 361.76 382.88 353.65 379.40 345.31 376.54 C 342.31 375.27 339.63 377.80 337.18 379.19 M 412.71 376.60 C 406.83 378.79 400.70 380.19 394.81 382.32 C 396.66 384.75 398.98 386.85 401.66 388.34 C 412.38 390.74 423.23 392.56 433.96 394.95 C 443.01 396.41 451.85 399.13 461.01 399.87 C 473.27 399.94 484.29 405.99 496.03 408.65 C 493.35 403.80 491.17 398.60 487.80 394.18 C 485.25 392.52 481.99 392.50 479.12 391.71 C 461.07 387.06 442.96 382.69 424.89 378.11 C 420.93 377.17 416.78 375.03 412.71 376.60 M 389.51 396.64 C 389.86 400.60 391.37 404.48 392.72 408.21 C 397.56 411.32 403.28 412.55 408.65 414.45 C 415.73 417.02 422.68 419.97 429.95 422.00 C 438.57 424.56 446.82 429.02 455.98 429.21 C 467.94 430.44 480.04 432.00 492.03 430.31 C 495.36 430.04 498.76 430.44 502.03 429.55 C 482.25 424.74 462.68 419.12 442.97 413.99 C 427.03 409.35 411.58 403.21 395.72 398.33 C 393.68 397.82 391.63 396.10 389.51 396.64 M 416.95 440.16 C 418.40 443.65 420.61 447.61 424.65 448.41 C 441.24 452.26 457.55 457.15 473.98 461.66 C 472.48 457.43 470.33 452.27 465.28 451.58 C 449.20 447.66 433.09 443.86 416.95 440.16 Z" />
<path fill="#0a0402" opacity="1.00" d=" M 583.70 598.83 C 588.57 595.45 593.74 592.54 598.95 589.72 C 599.31 592.56 599.49 595.43 599.62 598.31 C 594.40 599.64 589.00 598.80 583.70 598.83 Z" />
</g>
<g id="#312e29ff">
<path fill="#312e29" opacity="1.00" d=" M 422.29 284.32 C 424.47 281.89 426.01 278.45 429.30 277.33 C 427.73 282.88 427.65 288.67 427.08 294.37 C 425.24 291.14 423.68 287.76 422.29 284.32 Z" />
<path fill="#312e29" opacity="1.00" d=" M 429.89 301.49 C 432.50 301.10 435.02 300.32 437.48 299.38 C 444.01 306.78 442.14 317.44 442.26 326.50 C 438.69 323.03 437.41 318.11 435.29 313.76 C 433.37 309.72 431.58 305.62 429.89 301.49 Z" />
</g>
<g id="#362f2aff">
<path fill="#362f2a" opacity="1.00" d=" M 296.43 335.18 C 300.61 334.56 304.79 333.99 309.00 333.62 C 309.33 335.36 309.67 337.11 310.00 338.85 C 305.39 337.95 300.86 336.72 296.43 335.18 Z" />
</g>
<g id="#230d02ff">
<path fill="#230d02" opacity="1.00" d=" M 265.91 361.04 C 266.33 358.65 265.73 355.84 267.50 353.90 C 268.44 361.93 269.47 369.95 270.87 377.92 C 274.21 405.71 278.87 433.32 282.77 461.04 C 283.68 465.06 284.52 469.33 283.22 473.36 C 278.56 469.68 275.31 464.63 271.17 460.44 C 273.79 459.59 276.39 458.69 278.97 457.71 C 274.61 452.51 269.07 448.48 264.24 443.76 C 263.19 442.81 263.21 441.31 262.97 440.04 C 262.32 434.63 261.08 429.31 260.74 423.87 C 256.75 425.56 253.66 428.70 250.15 431.15 C 246.86 433.35 247.17 437.79 245.53 441.04 C 244.02 435.81 245.81 430.37 245.33 425.04 C 245.70 421.43 242.57 419.09 240.98 416.21 C 243.82 414.62 247.31 414.03 249.73 411.79 C 249.13 405.20 245.99 398.93 245.19 392.29 C 249.16 389.23 253.35 386.44 257.25 383.29 C 263.24 377.58 265.37 369.04 265.91 361.04 Z" />
</g>
<g id="#150f0fff">
<path fill="#150f0f" opacity="1.00" d=" M 337.18 379.19 C 339.63 377.80 342.31 375.27 345.31 376.54 C 353.65 379.40 361.76 382.88 369.97 386.07 C 371.55 386.39 370.38 388.10 369.71 388.69 C 365.50 393.51 360.22 397.20 355.79 401.80 C 353.70 403.96 351.23 405.96 348.12 406.27 C 341.46 407.22 334.85 408.42 328.19 409.35 C 321.86 410.49 315.40 412.58 308.96 410.93 C 302.99 409.57 296.71 409.53 290.94 407.44 C 302.88 405.13 315.07 404.44 327.03 402.30 C 337.78 400.97 348.51 399.61 359.18 397.80 C 356.41 393.44 353.26 388.87 348.93 385.97 C 338.59 387.22 328.37 389.53 318.04 390.85 C 324.19 386.61 331.06 383.51 337.18 379.19 Z" />
</g>
<g id="#181311ff">
<path fill="#181311" opacity="1.00" d=" M 412.71 376.60 C 416.78 375.03 420.93 377.17 424.89 378.11 C 442.96 382.69 461.07 387.06 479.12 391.71 C 481.99 392.50 485.25 392.52 487.80 394.18 C 491.17 398.60 493.35 403.80 496.03 408.65 C 484.29 405.99 473.27 399.94 461.01 399.87 C 451.85 399.13 443.01 396.41 433.96 394.95 C 423.23 392.56 412.38 390.74 401.66 388.34 C 398.98 386.85 396.66 384.75 394.81 382.32 C 400.70 380.19 406.83 378.79 412.71 376.60 Z" />
</g>
<g id="#161110ff">
<path fill="#161110" opacity="1.00" d=" M 389.51 396.64 C 391.63 396.10 393.68 397.82 395.72 398.33 C 411.58 403.21 427.03 409.35 442.97 413.99 C 462.68 419.12 482.25 424.74 502.03 429.55 C 498.76 430.44 495.36 430.04 492.03 430.31 C 480.04 432.00 467.94 430.44 455.98 429.21 C 446.82 429.02 438.57 424.56 429.95 422.00 C 422.68 419.97 415.73 417.02 408.65 414.45 C 403.28 412.55 397.56 411.32 392.72 408.21 C 391.37 404.48 389.86 400.60 389.51 396.64 Z" />
</g>
<g id="#2f2a24ff">
<path fill="#2f2a24" opacity="1.00" d=" M 552.05 414.13 L 553.62 413.64 C 555.70 418.09 557.33 422.73 558.53 427.50 C 561.79 436.63 565.02 445.79 567.65 455.13 C 569.57 461.52 568.14 468.22 568.80 474.74 C 566.28 472.04 565.95 468.28 565.15 464.85 C 560.91 447.92 555.89 431.16 552.05 414.13 Z" />
<path fill="#2f2a24" opacity="1.00" d=" M 568.88 474.99 C 570.08 478.66 571.66 482.19 573.39 485.64 C 575.45 489.82 574.02 494.55 573.15 498.85 C 574.61 501.34 576.99 503.79 576.53 506.92 C 575.70 512.66 580.32 517.10 582.40 522.03 C 582.25 522.80 581.93 524.35 581.77 525.12 C 586.37 535.89 590.25 546.95 593.76 558.11 C 595.92 564.41 595.77 571.16 597.15 577.62 C 594.37 575.84 593.60 572.52 592.36 569.70 C 587.89 558.27 582.96 547.04 578.48 535.62 C 577.06 531.58 572.97 529.66 569.99 526.96 C 562.75 521.16 556.97 513.55 548.60 509.23 C 548.08 508.13 547.59 507.03 547.15 505.91 C 554.20 498.36 561.31 490.86 568.12 483.09 C 569.60 480.70 568.94 477.65 568.88 474.99 Z" />
</g>
<g id="#15100eff">
<path fill="#15100e" opacity="1.00" d=" M 416.95 440.16 C 433.09 443.86 449.20 447.66 465.28 451.58 C 470.33 452.27 472.48 457.43 473.98 461.66 C 457.55 457.15 441.24 452.26 424.65 448.41 C 420.61 447.61 418.40 443.65 416.95 440.16 Z" />
</g>
<g id="#2f2218ff">
<path fill="#2f2218" opacity="1.00" d=" M 322.19 499.40 C 332.18 502.12 341.74 506.31 351.61 509.45 C 356.32 510.68 361.25 510.48 366.06 511.02 C 370.14 511.53 374.62 510.56 378.33 512.76 C 385.08 516.60 391.63 520.79 398.29 524.80 C 406.95 529.53 414.92 535.45 423.81 539.79 C 426.74 542.24 430.20 543.84 433.66 545.42 C 441.44 549.60 448.83 554.66 457.14 557.78 C 465.31 560.18 473.88 560.86 482.14 562.93 C 487.31 564.36 493.10 564.17 497.65 567.37 C 504.11 571.63 511.13 575.08 517.20 579.91 C 508.98 578.70 501.28 575.38 493.18 573.68 C 479.84 571.62 466.41 569.97 453.29 566.72 C 446.51 565.16 439.61 564.09 432.91 562.21 C 417.71 556.68 403.18 549.47 387.93 544.07 C 380.32 540.90 372.58 538.10 364.86 535.23 C 359.85 533.52 360.60 527.16 358.89 523.10 C 358.74 521.07 356.49 521.33 355.04 520.99 C 347.83 520.10 340.61 519.39 333.41 518.49 C 329.22 517.69 325.00 517.04 320.73 516.93 C 316.76 516.31 312.77 515.79 308.81 515.13 C 309.44 513.77 310.09 512.42 310.74 511.08 C 308.42 509.79 306.14 508.46 303.89 507.08 C 307.26 507.16 310.65 507.56 314.02 507.17 C 317.30 505.22 319.14 501.64 322.19 499.40 Z" />
</g>
<g id="#241710ff">
<path fill="#241710" opacity="1.00" d=" M 548.60 509.23 C 556.97 513.55 562.75 521.16 569.99 526.96 C 572.97 529.66 577.06 531.58 578.48 535.62 C 582.96 547.04 587.89 558.27 592.36 569.70 C 593.60 572.52 594.37 575.84 597.15 577.62 C 597.97 581.61 598.42 585.67 598.95 589.72 C 593.74 592.54 588.57 595.45 583.70 598.83 C 566.47 599.62 549.21 598.94 531.98 599.16 C 522.78 598.98 513.56 599.66 504.39 598.75 C 481.84 593.73 459.09 589.61 436.34 585.56 C 432.51 584.95 431.01 580.88 428.60 578.35 C 425.12 574.53 422.47 569.41 417.28 567.67 C 407.47 563.90 397.63 560.20 387.96 556.12 C 393.78 556.30 399.45 558.26 405.30 557.83 C 393.09 552.78 381.03 547.40 368.85 542.29 C 361.95 539.12 354.66 536.77 348.14 532.83 C 338.89 527.73 329.88 522.21 320.73 516.93 C 325.00 517.04 329.22 517.69 333.41 518.49 C 340.61 519.39 347.83 520.10 355.04 520.99 C 356.49 521.33 358.74 521.07 358.89 523.10 C 360.60 527.16 359.85 533.52 364.86 535.23 C 372.58 538.10 380.32 540.90 387.93 544.07 C 403.18 549.47 417.71 556.68 432.91 562.21 C 439.61 564.09 446.51 565.16 453.29 566.72 C 466.41 569.97 479.84 571.62 493.18 573.68 C 501.28 575.38 508.98 578.70 517.20 579.91 C 511.13 575.08 504.11 571.63 497.65 567.37 C 493.10 564.17 487.31 564.36 482.14 562.93 C 473.88 560.86 465.31 560.18 457.14 557.78 C 448.83 554.66 441.44 549.60 433.66 545.42 C 430.20 543.84 426.74 542.24 423.81 539.79 C 429.60 540.61 435.05 542.82 440.63 544.47 C 450.15 547.66 459.78 550.48 469.33 553.55 C 472.56 554.89 475.62 552.77 478.51 551.55 C 487.09 547.75 495.72 544.09 504.26 540.19 C 505.49 539.81 506.94 538.74 508.14 539.81 C 516.17 545.52 522.84 553.01 531.10 558.38 C 530.37 553.93 528.77 549.69 527.49 545.39 C 524.95 537.57 522.82 529.64 520.09 521.89 C 532.66 519.19 545.65 519.07 558.28 516.61 C 550.04 514.43 541.43 516.53 533.04 516.14 C 526.67 515.73 520.34 517.04 513.97 516.61 C 523.58 514.36 533.32 512.70 543.04 510.98 C 544.96 510.64 546.79 509.94 548.60 509.23 M 505.74 547.88 C 506.38 552.97 506.89 558.19 505.58 563.22 C 507.85 565.61 511.70 563.81 513.70 566.50 C 514.82 566.37 515.95 566.24 517.08 566.10 C 516.24 561.75 513.71 558.04 512.25 553.91 C 510.49 549.42 508.80 544.90 507.51 540.26 C 505.72 542.32 505.64 545.28 505.74 547.88 Z" />
</g>
<g id="#0b0402e6">
<path fill="#0b0402" opacity="0.90" d=" M 599.62 598.31 L 600.00 598.19 L 600.00 600.00 L 195.79 600.00 C 196.70 599.51 197.65 599.14 198.65 598.90 C 275.08 599.14 351.53 598.94 427.97 599.01 C 453.44 598.85 478.92 599.31 504.39 598.75 C 513.56 599.66 522.78 598.98 531.98 599.16 C 549.21 598.94 566.47 599.62 583.70 598.83 C 589.00 598.80 594.40 599.64 599.62 598.31 Z" />
</g>
</svg>
