<?xml version="1.0" encoding="UTF-8" ?>
<!DOCTYPE svg PUBLIC "-//W3C//DTD SVG 1.1//EN" "http://www.w3.org/Graphics/SVG/1.1/DTD/svg11.dtd">
<svg width="71pt" height="71pt" viewBox="0 0 71 71" version="1.1" xmlns="http://www.w3.org/2000/svg">
<g id="#cb875fff">
<path fill="#cb875f" opacity="1.00" d=" M 0.00 0.00 L 71.00 0.00 L 71.00 71.00 L 0.00 71.00 L 0.00 0.00 M 2.77 2.25 C 24.84 24.29 46.90 46.33 68.98 68.36 C 69.01 46.32 69.01 24.28 68.98 2.25 C 46.91 2.28 24.84 2.25 2.77 2.25 M 15.77 37.95 C 15.73 44.30 15.72 50.65 15.78 56.99 C 19.98 56.84 24.67 57.80 28.39 55.32 C 33.31 51.78 33.29 43.25 28.43 39.66 C 24.70 37.17 19.99 38.11 15.77 37.95 Z" />
<path fill="#cb875f" opacity="1.00" d=" M 19.43 41.16 C 21.57 41.35 23.92 40.88 25.85 42.05 C 29.18 44.55 29.16 50.39 25.83 52.89 C 23.93 54.09 21.55 53.57 19.43 53.78 C 19.45 49.57 19.45 45.37 19.43 41.16 Z" />
</g>
<g id="#20232aff">
<path fill="#20232a" opacity="1.00" d=" M 2.77 2.25 C 24.84 2.25 46.91 2.28 68.98 2.25 C 69.01 24.28 69.01 46.32 68.98 68.36 C 46.90 46.33 24.84 24.29 2.77 2.25 M 42.89 22.04 C 42.52 27.15 46.77 32.37 52.09 32.12 C 54.05 32.24 55.61 30.92 57.27 30.09 L 57.20 31.97 C 57.97 31.98 59.50 32.00 60.26 32.02 C 60.26 28.74 60.27 25.47 60.26 22.19 C 57.97 22.20 55.69 22.19 53.41 22.18 C 53.38 22.85 53.33 24.19 53.31 24.86 C 54.69 24.88 56.08 24.93 57.46 24.99 C 56.71 28.48 51.92 30.00 49.15 27.87 C 45.10 25.03 45.95 17.21 51.09 16.19 C 53.51 15.62 55.49 17.23 56.98 18.90 C 57.91 18.22 58.84 17.55 59.77 16.88 C 58.06 14.83 55.88 12.85 53.04 12.87 C 47.80 12.20 42.88 16.83 42.89 22.04 Z" />
</g>
<g id="#fdfefeff">
<path fill="#fdfefe" opacity="1.00" d=" M 42.89 22.04 C 42.88 16.83 47.80 12.20 53.04 12.87 C 55.88 12.85 58.06 14.83 59.77 16.88 C 58.84 17.55 57.91 18.22 56.98 18.90 C 55.49 17.23 53.51 15.62 51.09 16.19 C 45.95 17.21 45.10 25.03 49.15 27.87 C 51.92 30.00 56.71 28.48 57.46 24.99 C 56.08 24.93 54.69 24.88 53.31 24.86 C 53.33 24.19 53.38 22.85 53.41 22.18 C 55.69 22.19 57.97 22.20 60.26 22.19 C 60.27 25.47 60.26 28.74 60.26 32.02 C 59.50 32.00 57.97 31.98 57.20 31.97 L 57.27 30.09 C 55.61 30.92 54.05 32.24 52.09 32.12 C 46.77 32.37 42.52 27.15 42.89 22.04 Z" />
<path fill="#fdfefe" opacity="1.00" d=" M 15.77 37.95 C 19.99 38.11 24.70 37.17 28.43 39.66 C 33.29 43.25 33.31 51.78 28.39 55.32 C 24.67 57.80 19.98 56.84 15.78 56.99 C 15.72 50.65 15.73 44.30 15.77 37.95 M 19.43 41.16 C 19.45 45.37 19.45 49.57 19.43 53.78 C 21.55 53.57 23.93 54.09 25.83 52.89 C 29.16 50.39 29.18 44.55 25.85 42.05 C 23.92 40.88 21.57 41.35 19.43 41.16 Z" />
</g>
</svg>
