<?xml version="1.0" encoding="UTF-8" ?>
<!DOCTYPE svg PUBLIC "-//W3C//DTD SVG 1.1//EN" "http://www.w3.org/Graphics/SVG/1.1/DTD/svg11.dtd">
<svg width="135pt" height="135pt" viewBox="0 0 135 135" version="1.1" xmlns="http://www.w3.org/2000/svg">
<g id="#3a3c42f6">
<path fill="#3a3c42" opacity="0.96" d=" M 52.42 1.82 C 69.00 -1.48 87.03 0.64 101.61 9.51 C 116.02 17.95 126.96 32.02 131.66 48.04 C 136.87 65.91 134.59 85.99 124.88 101.95 C 114.42 120.00 94.78 132.17 74.05 134.00 C 53.71 136.23 32.37 128.54 18.58 113.33 C 11.01 105.28 5.15 95.54 2.52 84.74 C -0.81 71.85 -0.18 58.02 3.73 45.32 C 7.16 35.77 12.75 27.06 19.66 19.66 C 28.84 11.10 40.07 4.46 52.42 1.82 M 56.38 3.48 C 29.78 7.84 7.17 30.43 3.38 57.20 C 1.78 69.51 2.99 82.36 8.33 93.68 C 16.02 111.80 32.73 125.49 51.75 130.21 C 65.86 133.54 81.07 132.29 94.30 126.26 C 111.34 118.40 124.86 102.88 129.70 84.68 C 132.85 73.47 132.99 61.39 129.81 50.18 C 125.10 33.01 113.02 17.91 97.02 9.98 C 84.73 3.17 70.16 1.42 56.38 3.48 Z" />
</g>
<g id="#20232aff">
<path fill="#20232a" opacity="1.00" d=" M 56.38 3.48 C 70.16 1.42 84.73 3.17 97.02 9.98 C 113.02 17.91 125.10 33.01 129.81 50.18 C 132.99 61.39 132.85 73.47 129.70 84.68 C 124.86 102.88 111.34 118.40 94.30 126.26 C 81.07 132.29 65.86 133.54 51.75 130.21 C 32.73 125.49 16.02 111.80 8.33 93.68 C 2.99 82.36 1.78 69.51 3.38 57.20 C 7.17 30.43 29.78 7.84 56.38 3.48 M 66.14 38.02 C 60.86 43.49 55.15 48.51 49.95 54.05 C 51.26 55.41 52.60 56.76 53.94 58.09 C 58.25 54.33 61.98 49.97 66.20 46.12 C 70.60 49.93 74.26 54.50 78.78 58.19 C 79.89 56.77 81.05 55.38 82.23 54.01 C 77.04 48.52 71.80 43.04 66.14 38.02 M 66.15 88.21 C 61.93 84.56 58.27 80.34 54.00 76.76 C 52.62 77.94 51.23 79.11 49.81 80.24 C 55.10 85.96 60.92 91.17 66.24 96.88 C 71.37 92.12 75.93 86.79 81.00 81.96 C 83.38 80.03 79.89 77.90 78.82 76.26 C 74.54 80.18 70.61 84.48 66.15 88.21 Z" />
</g>
<g id="#cb875fff">
<path fill="#cb875f" opacity="1.00" d=" M 66.14 38.02 C 71.80 43.04 77.04 48.52 82.23 54.01 C 81.05 55.38 79.89 56.77 78.78 58.19 C 74.26 54.50 70.60 49.93 66.20 46.12 C 61.98 49.97 58.25 54.33 53.94 58.09 C 52.60 56.76 51.26 55.41 49.95 54.05 C 55.15 48.51 60.86 43.49 66.14 38.02 Z" />
<path fill="#cb875f" opacity="1.00" d=" M 66.15 88.21 C 70.61 84.48 74.54 80.18 78.82 76.26 C 79.89 77.90 83.38 80.03 81.00 81.96 C 75.93 86.79 71.37 92.12 66.24 96.88 C 60.92 91.17 55.10 85.96 49.81 80.24 C 51.23 79.11 52.62 77.94 54.00 76.76 C 58.27 80.34 61.93 84.56 66.15 88.21 Z" />
</g>
</svg>
